<svg width="615" height="281" viewBox="0 0 615 281" fill="none" xmlns="http://www.w3.org/2000/svg">
<path d="M212.056 175.002V217.718H178.028V276H130.244V217.718H21.6436V170.296L131.692 21.876H178.028V175.002H212.056ZM130.244 175.002V80.882L62.9116 175.002H130.244Z" fill="#DCECFE"/>
<path d="M319.086 21.152C391.848 21.152 411.758 91.38 411.758 151.11C411.758 231.474 377.006 280.344 319.448 280.344C260.804 280.344 225.69 232.198 225.69 151.11C225.69 91.38 247.048 21.152 319.086 21.152ZM318.724 63.506C276.37 63.506 276.37 123.598 276.37 153.644C276.37 211.202 290.126 238.714 319.086 238.714C347.322 238.714 361.078 210.116 361.078 151.11C361.078 90.656 348.046 63.506 318.724 63.506Z" fill="#DCECFE"/>
<path d="M614.356 175.002V217.718H580.328V276H532.544V217.718H423.944V170.296L533.992 21.876H580.328V175.002H614.356ZM532.544 175.002V80.882L465.212 175.002H532.544Z" fill="#DCECFE"/>
<path d="M191.056 154.002V196.718H157.028V255H109.244V196.718H0.643555V149.296L110.692 0.87599H157.028V154.002H191.056ZM109.244 154.002V59.882L41.9116 154.002H109.244Z" fill="#186FD4"/>
<path d="M298.086 0.151978C370.848 0.151978 390.758 70.38 390.758 130.11C390.758 210.474 356.006 259.344 298.448 259.344C239.804 259.344 204.69 211.198 204.69 130.11C204.69 70.38 226.048 0.151978 298.086 0.151978ZM297.724 42.506C255.37 42.506 255.37 102.598 255.37 132.644C255.37 190.202 269.126 217.714 298.086 217.714C326.322 217.714 340.078 189.116 340.078 130.11C340.078 69.656 327.046 42.506 297.724 42.506Z" fill="#186FD4"/>
<path d="M593.356 154.002V196.718H559.328V255H511.544V196.718H402.944V149.296L512.992 0.87599H559.328V154.002H593.356ZM511.544 154.002V59.882L444.212 154.002H511.544Z" fill="#186FD4"/>
</svg>
