<svg width="104" height="77" viewBox="0 0 104 77" fill="none" xmlns="http://www.w3.org/2000/svg">
<path d="M2.97363 2H19.624C20.4705 2 21.2253 2.53286 21.5086 3.33047L25.7275 15.2057M25.7275 15.2057L41.0609 58.3664C41.4098 59.3486 42.4545 59.8981 43.4614 59.6292L99.5422 44.6546C100.417 44.4209 101.026 43.6282 101.026 42.7223V17.2057C101.026 16.1012 100.131 15.2057 99.0263 15.2057H25.7275Z" stroke="#186FD4" stroke-width="4" stroke-linecap="round" stroke-linejoin="round"/>
<path d="M55.7282 41.899L55.7291 41.898C57.1785 40.2882 59.1444 39.3838 61.1942 39.3838C63.2439 39.3838 65.2098 40.2882 66.6592 41.898L66.6601 41.899M49.001 31C50.0045 32.0732 51.366 32.6768 52.785 32.6768C54.2042 32.6768 55.5651 32.0738 56.5687 31.0006M65.8192 31C66.8227 32.0732 68.1842 32.6768 69.6033 32.6768C71.0223 32.6768 72.3833 32.0738 73.3869 31.0006" stroke="#186FD4" stroke-width="4" stroke-linecap="round" stroke-linejoin="round"/>
<path d="M26.6928 71C26.6928 73.9455 29.0806 76.3333 32.0261 76.3333C34.9716 76.3333 37.3594 73.9455 37.3594 71C37.3594 68.0545 34.9716 65.6667 32.0261 65.6667C29.0806 65.6667 26.6928 68.0545 26.6928 71ZM28.3945 72H32.0261V70H28.3945V72Z" fill="#186FD4"/>
<path d="M69.9047 71C69.9047 73.9455 72.2925 76.3333 75.238 76.3333C78.1835 76.3333 80.5714 73.9455 80.5714 71C80.5714 68.0545 78.1835 65.6667 75.238 65.6667C72.2925 65.6667 69.9047 68.0545 69.9047 71ZM71.6064 72H75.238V70H71.6064V72Z" fill="#186FD4"/>
</svg>
