<svg width="215" height="54" viewBox="0 0 215 54" fill="none" xmlns="http://www.w3.org/2000/svg">
<g clip-path="url(#clip0_6724_618)">
<path fill-rule="evenodd" clip-rule="evenodd" d="M27.6228 10.474C32.307 10.474 36.5482 12.3355 39.6096 15.3462L33.3728 21.4069L28.2368 16.2682L16.1885 27.1486L19.8728 27.1398L19.9385 36.386L25.6008 36.4646V32.6762C25.6008 31.8416 26.4429 32.0207 28.2324 32.0426H28.2456H28.2587C30.0482 32.0163 30.8903 31.8416 30.8903 32.6762V36.4646L36.4429 36.386L39.0614 39.1738C36.0526 41.8743 32.0394 43.526 27.6315 43.526C18.2938 43.526 10.7236 36.1282 10.7236 27C10.7236 17.8718 18.285 10.474 27.6228 10.474ZM19.8377 21.7521L22.8333 19.2876L22.8684 17.9548H19.8333V21.7521H19.8377Z" fill="#2B2C86"/>
<path fill-rule="evenodd" clip-rule="evenodd" d="M27.6228 0C35.2763 0 42.2018 3.04127 47.2061 7.95711L43.4912 11.5708C39.4386 7.58569 33.8246 5.12122 27.6228 5.12122C15.2588 5.12122 5.23684 14.9179 5.23684 27C5.23684 39.0821 15.2588 48.8788 27.6228 48.8788C33.4605 48.8788 38.7719 46.694 42.7588 43.1196L46.3026 46.8906C41.386 51.3039 34.8289 54 27.6272 54C12.3684 54 0 41.9136 0 27C0 12.0864 12.3684 0 27.6228 0Z" fill="#E52B0E"/>
<path fill-rule="evenodd" clip-rule="evenodd" d="M57.2105 30.5525C54.864 30.5525 52.8684 29.7485 51.2193 28.1361C49.5702 26.5237 48.7456 24.5486 48.7456 22.2065C48.7456 19.8644 49.5702 17.8849 51.2193 16.2551C52.8684 14.6295 54.864 13.8124 57.2105 13.8124C57.6535 13.8124 58.0658 13.8343 58.4474 13.8823C58.8289 13.9304 59.2061 14.0134 59.5877 14.1402L59.8947 13.6988L62.5351 15.2107L60.75 18.6059C59.5921 17.5659 58.4123 17.0503 57.2061 17.0503C55.8728 17.0503 54.75 17.5485 53.8289 18.536C52.9079 19.5279 52.4517 20.7514 52.4517 22.2109C52.4517 23.6703 52.9123 24.8458 53.8289 25.8377C54.75 26.8296 55.8728 27.3234 57.2061 27.3234C58.6184 27.3234 59.7588 26.8296 60.6316 25.8377L62.0351 29.1149C60.6403 30.0762 59.0307 30.5569 57.2061 30.5569L57.2105 30.5525ZM66.1754 30.1112V17.5135H62.8947L64.0131 14.2843H70.364L70.7675 13.5634H73.9781L72.5263 17.5135H69.671V30.1112H66.1754ZM75.2588 30.1112H78.7544V25.3221H80.7763C82.2017 25.3221 83.4079 24.7584 84.3903 23.6266C85.3728 22.4949 85.864 21.1228 85.864 19.5104C85.864 18.0685 85.3509 16.8362 84.3202 15.8137C83.2895 14.7912 82.0833 14.28 80.7061 14.28H74.9254L73.7368 17.5091H75.2588V30.1068V30.1112ZM78.7544 17.5135H79.8246C80.4912 17.5135 81.0438 17.7364 81.4912 18.1864C81.9342 18.6365 82.1579 19.1871 82.1579 19.8382C82.1579 20.4892 81.9298 21.0092 81.4693 21.4418C81.0088 21.8744 80.4561 22.0929 79.8026 22.0929H78.7544V17.5135ZM95.4035 30.5525C93.057 30.5525 91.0614 29.7485 89.4123 28.1361C87.7631 26.5237 86.9386 24.5486 86.9386 22.2065C86.9386 19.8644 87.7631 17.9199 89.4123 16.2769C91.0614 14.6339 93.057 13.8124 95.4035 13.8124C97.75 13.8124 99.7456 14.6252 101.395 16.2551C103.044 17.8849 103.868 19.8644 103.868 22.2065C103.868 24.5486 103.044 26.4844 101.395 28.1099C99.7456 29.7354 97.75 30.5525 95.4035 30.5525ZM95.4035 17.046C94.0877 17.046 92.9649 17.5441 92.0395 18.5447C91.114 19.5454 90.6491 20.7645 90.6491 22.2065C90.6491 23.6485 91.1096 24.8414 92.0307 25.8333C92.9517 26.8252 94.0746 27.319 95.4079 27.319C96.7412 27.319 97.864 26.8252 98.7851 25.8333C99.7061 24.8414 100.167 23.631 100.167 22.2065C100.167 20.782 99.7017 19.5454 98.7763 18.5447C97.8509 17.5441 96.7281 17.046 95.4123 17.046H95.4035ZM114.145 14.28H117.64V30.1112H114.145V21.4637L109.482 30.1112H105.987V17.5135H104.465L105.653 14.2843H109.482V23.1416L114.145 14.2843V14.28ZM107.82 11.5621L109.105 10.2599C109.439 10.6488 109.838 10.9372 110.307 11.1338C110.776 11.3261 111.254 11.4222 111.746 11.4222C112.807 11.4222 113.68 11.0333 114.36 10.2599L115.737 11.6101L115.64 11.7718C114.548 12.9341 113.246 13.5153 111.741 13.5153C110.965 13.5153 110.241 13.358 109.579 13.039C108.912 12.72 108.325 12.2306 107.82 11.5621ZM128.132 30.5525C125.785 30.5525 123.789 29.7485 122.14 28.1361C120.491 26.5237 119.667 24.5486 119.667 22.2065C119.667 19.8644 120.491 17.9199 122.14 16.2769C123.789 14.6339 125.785 13.8124 128.132 13.8124C130.478 13.8124 132.474 14.6252 134.123 16.2551C135.772 17.8806 136.596 19.8644 136.596 22.2065C136.596 24.5486 135.772 26.4844 134.123 28.1099C132.474 29.7354 130.478 30.5525 128.132 30.5525ZM128.132 17.046C126.816 17.046 125.693 17.5441 124.768 18.5447C123.842 19.5454 123.377 20.7645 123.377 22.2065C123.377 23.6485 123.838 24.8414 124.759 25.8333C125.68 26.8252 126.803 27.319 128.136 27.319C129.469 27.319 130.592 26.8252 131.513 25.8333C132.434 24.8414 132.89 23.631 132.89 22.2065C132.89 20.782 132.425 19.5454 131.5 18.5447C130.575 17.5441 129.452 17.046 128.136 17.046H128.132ZM138.382 14.28H149.987V30.1112H146.491V17.5135H142.211V30.1112H138.715V17.5135H137.193L138.382 14.2843V14.28ZM154.697 30.1112V17.5135H151.417L152.535 14.2843H158.886L159.289 13.5634H162.5L161.048 17.5135H158.193V30.1112H154.697ZM165.544 30.1112H169.039V17.5135H171.895L173.346 13.5634H170.136L169.732 14.2843H163.382L162.263 17.5135H165.544V30.1112ZM182.167 30.5525C179.82 30.5525 177.825 29.7485 176.175 28.1361C174.526 26.5237 173.702 24.5486 173.702 22.2065C173.702 19.8644 174.526 17.9199 176.175 16.2769C177.825 14.6339 179.82 13.8124 182.167 13.8124C184.513 13.8124 186.509 14.6252 188.158 16.2551C189.807 17.8849 190.632 19.8644 190.632 22.2065C190.632 24.5486 189.807 26.4844 188.158 28.1099C186.509 29.7354 184.513 30.5525 182.167 30.5525ZM182.167 17.046C180.851 17.046 179.728 17.5441 178.803 18.5447C177.877 19.5454 177.412 20.7645 177.412 22.2065C177.412 23.6485 177.873 24.8414 178.789 25.8333C179.711 26.8252 180.833 27.319 182.167 27.319C183.5 27.319 184.623 26.8252 185.544 25.8333C186.465 24.8414 186.921 23.631 186.921 22.2065C186.921 20.782 186.456 19.5454 185.531 18.5447C184.605 17.5441 183.482 17.046 182.167 17.046ZM192.75 30.1112V17.5135H191.228L192.417 14.2843H198.197C199.575 14.2843 200.781 14.7956 201.811 15.8181C202.842 16.8406 203.355 18.0728 203.355 19.5148C203.355 21.1272 202.864 22.4993 201.882 23.631C200.899 24.7627 199.693 25.3264 198.268 25.3264H196.246V30.1155H192.75V30.1112ZM196.246 17.5135V22.0929H197.294C197.943 22.0929 198.5 21.8744 198.96 21.4418C199.421 21.0092 199.649 20.4718 199.649 19.8382C199.649 19.2046 199.425 18.6365 198.982 18.1864C198.539 17.7364 197.982 17.5135 197.316 17.5135H196.246ZM205.355 30.1112V17.5135H203.833L205.022 14.2843H211.395L211.825 13.5634H215.013L213.561 17.5135H208.851V30.1112H205.355Z" fill="#E52B0E"/>
<path fill-rule="evenodd" clip-rule="evenodd" d="M57.8425 37.9228V43.0103H60.5259C61.5079 43.0103 62.1911 42.4089 62.1911 41.509C62.1911 40.8497 61.7975 40.4176 61.2001 40.275C61.6436 40.1057 61.9558 39.6959 61.9558 39.2014C61.9558 38.4441 61.3857 37.9228 60.2454 37.9228H57.8425ZM58.743 38.6445H60.0282C60.5531 38.6445 61.0327 38.7069 61.0327 39.3439C61.0327 39.8563 60.6843 40.0434 59.9965 40.0434H58.7385V38.6445H58.743ZM58.743 40.6893H60.1096C60.7069 40.6893 61.2635 40.7873 61.2635 41.4912C61.2635 42.1416 60.7476 42.2842 60.1232 42.2842H58.7385V40.6893H58.743ZM67.567 41.0769H66.6438C66.5488 41.8253 66.1551 42.3777 65.2999 42.3777C64.1777 42.3777 63.7478 41.4155 63.7478 40.471C63.7478 39.5266 64.2003 38.5688 65.3089 38.5688C65.9877 38.5688 66.4855 38.9341 66.6122 39.5489H67.5308C67.3543 38.3683 66.3769 37.8115 65.327 37.8115C63.7297 37.8115 62.8201 39.0276 62.8201 40.471C62.8201 42.0793 63.7976 43.1351 65.2818 43.1351C66.5986 43.1351 67.4765 42.3154 67.576 41.0769H67.567ZM72.1826 37.9273H68.3905V43.0148H72.2278V42.2486H69.3046V40.7472H71.9744V40.0255H69.3046V38.6757H72.1826V37.9273ZM71.4223 36.72H70.6033V37.4907H71.4223V36.72ZM69.9517 36.72H69.1236V37.4907H69.9517V36.72ZM79.8164 44.28V42.2441H79.2236V37.9273H75.7936V38.7113C75.7936 40.1102 75.504 41.5536 75.1058 42.2396H74.5944V44.2755H75.4904V43.0103H78.9204V44.2755H79.8164V44.28ZM78.3005 42.2441H76.0968C76.4226 41.607 76.6941 40.2706 76.6941 39.0098V38.7024H78.3005V42.2441ZM84.5723 43.0148V37.9273H81.1332L81.0291 40.8764C80.9839 42.1684 80.6943 42.3822 80.3187 42.3822C80.2463 42.3822 80.0653 42.3688 79.9567 42.3243V43.0103C80.0879 43.0549 80.3051 43.1039 80.5133 43.1039C81.2689 43.1039 81.8663 42.5381 81.9251 41.117L82.0201 38.6935H83.6491V43.0103H84.5723V43.0148ZM89.6313 43.0148V37.9273H87.233C86.1108 37.9273 85.4863 38.4931 85.4863 39.335C85.4863 39.9765 85.6945 40.5512 86.6267 40.8274L85.0067 43.0148H86.1606L87.6539 40.9165H88.7037V43.0148H89.6268H89.6313ZM88.7082 40.2349H87.319C86.7262 40.2349 86.4185 39.9498 86.4185 39.4152C86.4185 38.8806 86.7081 38.6579 87.3371 38.6579H88.7127V40.2349H88.7082ZM97.2968 41.0769H96.3737C96.2787 41.8253 95.885 42.3777 95.0298 42.3777C93.9075 42.3777 93.4777 41.4155 93.4777 40.471C93.4777 39.5266 93.9302 38.5688 95.0388 38.5688C95.7176 38.5688 96.2153 38.9341 96.342 39.5489H97.2606C97.0842 38.3683 96.1067 37.8115 95.0569 37.8115C93.4596 37.8115 92.55 39.0276 92.55 40.471C92.55 42.0793 93.5274 43.1351 95.0117 43.1351C96.3285 43.1351 97.2063 42.3154 97.3059 41.0769H97.2968ZM101.772 37.9273H97.4914V38.698H99.1702V43.0148H100.093V38.698H101.772V37.9273ZM102.392 37.9273V43.0148H103.315V41.0591H104.804C105.867 41.0591 106.514 40.4443 106.514 39.482C106.514 38.4173 105.768 37.9317 104.682 37.9317H102.397L102.392 37.9273ZM103.315 38.6713H104.519C105.103 38.6713 105.605 38.845 105.605 39.4999C105.605 40.1013 105.198 40.3374 104.6 40.3374H103.315V38.6713ZM109.578 37.807C107.967 37.807 107.035 38.9786 107.035 40.471C107.035 42.057 108.058 43.1351 109.564 43.1351C111.071 43.1351 112.094 42.057 112.094 40.471C112.094 38.8851 111.067 37.807 109.578 37.807ZM109.564 38.5554C110.542 38.5554 111.162 39.2994 111.162 40.4621C111.162 41.6249 110.542 42.3822 109.578 42.3822C108.614 42.3822 107.967 41.6382 107.967 40.4532C107.967 39.2682 108.596 38.551 109.564 38.551V38.5554ZM112.913 43.0148H113.985L116.248 39.1123V43.0148H117.171V37.9273H116.099L113.836 41.8298V37.9273H112.913V43.0148ZM122.049 37.9273H117.768V38.698H119.447V43.0148H120.37V38.698H122.049V37.9273ZM126.443 37.9273H122.651V43.0148H126.488V42.2486H123.565V40.7472H126.235V40.0255H123.565V38.6757H126.443V37.9273ZM131.434 43.0148V37.9273H127.995L127.891 40.8764C127.846 42.1684 127.556 42.3822 127.181 42.3822C127.108 42.3822 126.927 42.3688 126.819 42.3243V43.0103C126.95 43.0549 127.167 43.1039 127.375 43.1039C128.131 43.1039 128.728 42.5381 128.787 41.117L128.882 38.6935H130.511V43.0103H131.434V43.0148ZM136.656 41.4378C136.656 40.4354 136.014 39.8741 134.86 39.8741H133.452V37.9317H132.529V43.0193H134.86C136.004 43.0193 136.656 42.449 136.656 41.4422V41.4378ZM135.733 41.46C135.733 42.008 135.43 42.2887 134.823 42.2887H133.457V40.6047H134.81C135.389 40.6047 135.733 40.9254 135.733 41.46ZM141.969 41.0814H141.045C140.95 41.8298 140.557 42.3822 139.701 42.3822C138.579 42.3822 138.149 41.4199 138.149 40.4755C138.149 39.531 138.602 38.5732 139.711 38.5732C140.389 38.5732 140.887 38.9385 141.014 39.5533H141.932C141.756 38.3728 140.778 37.8159 139.729 37.8159C138.131 37.8159 137.222 39.0321 137.222 40.4755C137.222 42.0837 138.199 43.1395 139.683 43.1395C141 43.1395 141.878 42.3198 141.978 41.0814H141.969ZM146.444 37.9317H142.163V38.7024H143.842V43.0193H144.765V38.7024H146.444V37.9317ZM147.041 37.9317V43.0193H149.725C150.707 43.0193 151.39 42.4178 151.39 41.5179C151.39 40.8586 150.996 40.4265 150.399 40.2839C150.842 40.1146 151.155 39.7048 151.155 39.2103C151.155 38.453 150.584 37.9317 149.444 37.9317H147.041ZM147.942 38.6534H149.227C149.752 38.6534 150.231 38.7158 150.231 39.3529C150.231 39.8652 149.883 40.0523 149.195 40.0523H147.937V38.6534H147.942ZM147.942 40.6982H149.308C149.906 40.6982 150.462 40.7962 150.462 41.5001C150.462 42.1505 149.946 42.2931 149.322 42.2931H147.937V40.6982H147.942ZM154.657 37.9317H153.675L151.643 43.0193H152.598L153.114 41.6694H155.2L155.702 43.0193H156.693L154.661 37.9317H154.657ZM154.951 40.9967H153.345L154.164 38.8584L154.947 40.9967H154.951ZM159.227 43.0193H160.3L162.562 39.1167V43.0193H163.485V37.9317H162.413L160.15 41.8342V37.9317H159.227V43.0193ZM166.653 37.9317V43.0193H167.576V41.0635H169.065C170.128 41.0635 170.775 40.4488 170.775 39.4865C170.775 38.4218 170.029 37.9362 168.943 37.9362H166.657L166.653 37.9317ZM167.576 38.6757H168.78C169.364 38.6757 169.866 38.8495 169.866 39.5043C169.866 40.1057 169.459 40.3418 168.861 40.3418H167.576V38.6757ZM175.355 37.9317H171.563V43.0193H175.4V42.253H172.477V40.7517H175.147V40.03H172.477V38.6802H175.355V37.9317ZM181.699 37.9317H180.414L178.993 41.91L177.522 37.9317H176.228V43.0193H177.101V39.0989L178.604 43.0193H179.359L180.826 39.0989V43.0193H181.708V37.9317H181.699ZM185.07 37.8115C183.459 37.8115 182.527 38.9831 182.527 40.4755C182.527 42.0614 183.55 43.1395 185.057 43.1395C186.563 43.1395 187.586 42.0614 187.586 40.4755C187.586 38.8895 186.559 37.8115 185.07 37.8115ZM185.057 38.5599C186.034 38.5599 186.654 39.3039 186.654 40.4666C186.654 41.6293 186.034 42.3867 185.07 42.3867C184.106 42.3867 183.459 41.6427 183.459 40.4577C183.459 39.2727 184.088 38.5554 185.057 38.5554V38.5599ZM192.668 37.9317H191.745V39.9543H189.333V37.9317H188.41V43.0193H189.333V40.7339H191.745V43.0193H192.668V37.9317ZM197.541 37.9317H193.261V38.7024H194.939V43.0193H195.862V38.7024H197.541V37.9317ZM199.872 37.9317L201.903 43.0193H200.912L200.41 41.6694H198.324L197.808 43.0193H196.853L198.885 37.9317H199.867H199.872ZM200.166 40.9967L199.383 38.8584L198.564 40.9967H200.17H200.166Z" fill="#2B2C86"/>
</g>
<defs>
<clipPath id="clip0_6724_618">
<rect width="215" height="54" fill="white"/>
</clipPath>
</defs>
</svg>
