<svg width="36" height="24" viewBox="0 0 36 24" fill="none" xmlns="http://www.w3.org/2000/svg">
  <path fill-rule="evenodd" clip-rule="evenodd" d="M13.872 12C13.872 13.7162 14.2722 15.4087 15.0408 16.9432C15.8094 18.4777 16.9251 19.8119 18.2994 20.8398C16.6559 22.0781 14.6999 22.8339 12.6509 23.0221C10.6019 23.2104 8.54135 22.8238 6.69954 21.9056C4.85774 20.9874 3.30902 19.5741 2.22608 17.8244C1.14313 16.0746 0.569336 14.0577 0.569336 12C0.569336 9.94228 1.14313 7.92533 2.22608 6.17561C3.30902 4.42581 4.85774 3.01249 6.69954 2.09433C8.54135 1.17626 10.6019 0.789565 12.6509 0.977819C14.6999 1.16616 16.6559 1.92183 18.2994 3.16018C16.9251 4.18805 15.8094 5.5223 15.0408 7.05676C14.2722 8.59121 13.872 10.2838 13.872 12Z" fill="black" />
  <path opacity="0.3" fill-rule="evenodd" clip-rule="evenodd" d="M24.9409 23.0686C22.5439 23.0688 20.2116 22.2862 18.2998 20.8398C19.6741 19.812 20.7898 18.4779 21.5584 16.9433C22.327 15.4089 22.7272 13.7163 22.7272 12C22.7272 10.2839 22.327 8.59127 21.5584 7.05673C20.7898 5.52227 19.6741 4.18812 18.2998 3.16025C19.7015 2.10697 21.3343 1.40203 23.0619 1.10353C24.7895 0.805127 26.564 0.921658 28.2385 1.44365C29.912 1.96564 31.4386 2.87805 32.6907 4.10568C33.9428 5.33332 34.8849 6.84103 35.4401 8.5045C35.9944 10.168 36.1458 11.9395 35.882 13.673C35.6172 15.4065 34.9451 17.0523 33.9197 18.4748C32.8944 19.8973 31.5449 21.0556 29.9838 21.8543C28.4227 22.6531 26.6942 23.0693 24.9409 23.0686Z" fill="black" />
  <path opacity="0.65" fill-rule="evenodd" clip-rule="evenodd" d="M13.8721 11.9999C13.8721 10.2838 14.2723 8.59119 15.0409 7.05673C15.8095 5.52228 16.9252 4.18811 18.2995 3.16016C19.6738 4.18803 20.7895 5.52218 21.5581 7.05664C22.3267 8.59118 22.7269 10.2838 22.7269 11.9999C22.7269 13.7162 22.3267 15.4088 21.5581 16.9432C20.7895 18.4778 19.6738 19.8119 18.2995 20.8397C16.9252 19.8119 15.8095 18.4777 15.0409 16.9432C14.2723 15.4087 13.8721 13.7162 13.8721 11.9999Z" fill="black" />
</svg>