<svg width="59" height="16" viewBox="0 0 59 16" fill="none" xmlns="http://www.w3.org/2000/svg">
  <path fill-rule="evenodd" clip-rule="evenodd" d="M14.6815 15.5267V6.58329H14.2865L11.453 15.5267H8.08815H8.07843L5.25465 6.58329H4.86233V15.5267H0.0302734V0.47345H4.86947C5.47248 0.470616 6.06129 0.661972 6.54742 1.01918C7.03355 1.37629 7.39128 1.88039 7.56926 2.45693L9.55809 9.41418H9.97689L11.9692 2.45693C12.1481 1.87933 12.5076 1.37461 12.9956 1.01741C13.4835 0.660202 14.0732 0.469465 14.6779 0.47345H19.5171V15.5267H14.6779H14.6815Z" fill="black" />
  <path fill-rule="evenodd" clip-rule="evenodd" d="M33.1911 15.5266V6.66204H32.8095L29.5093 14.0886C29.3154 14.5177 29.0019 14.8816 28.6061 15.1367C28.2094 15.3918 27.749 15.5271 27.2779 15.5266H23.0488V0.473392H27.919V9.33797H28.3183L31.6601 1.89991C31.669 1.88131 31.677 1.86183 31.6859 1.84323V1.83792C31.8878 1.42777 32.2012 1.08251 32.5899 0.841307C32.9778 0.600102 33.4267 0.472683 33.8836 0.473392H38.1127V15.5266H33.1911Z" fill="black" />
  <path fill-rule="evenodd" clip-rule="evenodd" d="M52.3918 11.1064H46.5901V15.5267H41.665V7.55737H58.0297C57.5418 8.6366 56.7466 9.54847 55.7443 10.1795C54.7419 10.8105 53.5757 11.1329 52.3918 11.1064Z" fill="black" />
  <path opacity="0.55" fill-rule="evenodd" clip-rule="evenodd" d="M58.3398 5.78629H48.9793C44.9141 5.78629 41.5342 3.33173 40.8223 0.473389H52.8303C55.9392 0.473389 58.4584 2.62777 58.4584 4.9318C58.4584 5.22074 58.4186 5.50825 58.3398 5.78629Z" fill="black" />
</svg>