<svg width="24" height="24" viewBox="0 0 24 24" fill="none" xmlns="http://www.w3.org/2000/svg">
  <path d="M20.3739 12.037C20.3536 16.9104 16.3972 20.8549 11.5191 20.8549C6.62857 20.8549 2.66426 16.8904 2.66426 12.0001C2.66426 7.10971 6.62857 3.14522 11.5191 3.14522C13.3175 3.14522 14.9911 3.68165 16.3884 4.60317L18.5543 2.88834C16.6089 1.3839 14.1685 0.48877 11.5191 0.48877C5.16133 0.48877 0.0078125 5.64255 0.0078125 12.0001C0.0078125 18.3576 5.16133 23.5113 11.5191 23.5113C17.8769 23.5113 23.0304 18.3576 23.0304 12.0001C23.0304 11.3398 22.9746 10.6924 22.8683 10.0624L20.3739 12.037Z" fill="black" />
  <path d="M22.0042 7.24165C21.6146 6.38468 21.1232 5.58384 20.5449 4.85474L11.5192 12.0002L7.0918 9.23301V12.7749L11.5192 15.5421L22.0042 7.24165Z" fill="black" />
</svg>