<svg width="77" height="10" viewBox="0 0 77 10" fill="none" xmlns="http://www.w3.org/2000/svg">
  <path d="M7.63191 9.70248V2.77854H11.7843V0.258712H0.45752V2.77854H4.60895V9.70248H7.63191ZM16.017 0.258712H12.994V9.70248H16.017V0.258712ZM18.2297 0.258712V9.70248H21.0079V4.4843L26.195 9.70248H28.7664V0.258712H25.9917V5.43722L20.9283 0.258712H18.2297ZM34.7135 6.13142L38.1951 9.70248H42.092L37.2319 4.78182L41.9065 0.258712H38.2392L34.7135 3.80993H33.9093V0.258712H30.9844V9.70248H33.9093V6.13142H34.7135ZM48.1009 0C44.1686 0 41.8181 2.18265 41.8181 5C41.8181 7.81821 44.1686 10 48.1009 10C52.0155 10 54.366 7.81821 54.366 5C54.366 2.18265 52.0155 0 48.1009 0ZM48.1009 7.69834C46.148 7.69834 44.8932 6.54795 44.8932 5C44.8932 3.45292 46.148 2.32149 48.1009 2.32149C50.0361 2.32149 51.3086 3.45292 51.3086 5C51.3086 6.54795 50.0361 7.69834 48.1009 7.69834ZM65.456 0.258712H55.7622V9.70248H58.6783V6.40911H65.0318V4.32563H58.6783V2.65954H65.456V0.258712ZM76.4575 0.258712H66.7638V9.70248H69.6798V6.40911H76.0334V4.32563H69.6798V2.65954H76.4575V0.258712Z" fill="black" />
</svg>