<svg width="22" height="23" viewBox="0 0 22 23" fill="none" xmlns="http://www.w3.org/2000/svg">
<rect x="0.8" y="1.3" width="20.4" height="20.4" rx="7.2" stroke="#16191E" stroke-width="1.6"/>
<path d="M8.10894 11.9468C7.34212 11.18 6.91133 10.14 6.91133 9.05556C6.91133 7.97112 7.34212 6.93109 8.10894 6.16428C8.87575 5.39746 9.91578 4.96667 11.0002 4.96667C12.0847 4.96667 13.1247 5.39746 13.8915 6.16428C14.6583 6.93109 15.0891 7.97112 15.0891 9.05556C15.0891 10.14 14.6583 11.18 13.8915 11.9468C13.1247 12.7137 12.0847 13.1444 11.0002 13.1444C9.91578 13.1444 8.87575 12.7137 8.10894 11.9468Z" stroke="#16191E" stroke-width="1.6"/>
<path d="M18.3332 20.0556C18.3332 16.3055 15.0499 13.9444 10.9998 13.9444C6.94975 13.9444 3.6665 16.3055 3.6665 20.0556" stroke="#16191E" stroke-width="1.6"/>
</svg>
