<svg width="48" height="16" viewBox="0 0 48 16" fill="none" xmlns="http://www.w3.org/2000/svg">
  <path fill-rule="evenodd" clip-rule="evenodd" d="M43.9471 15.5678C43.9471 15.5678 43.6009 13.4551 43.4849 12.9255H38.4792C38.3411 13.3399 37.6495 15.5678 37.6495 15.5678H33.5657L39.3567 1.7587C39.5005 1.34828 39.78 0.999125 40.1493 0.768899C40.5176 0.538674 40.9542 0.441187 41.3863 0.492456H44.4084L47.5687 15.5678H43.9471ZM41.9397 5.85406L41.6625 4.56479C41.4784 5.14036 41.1313 6.03824 41.1552 6.01522C41.1552 6.01522 39.9093 9.35172 39.61 10.2257H42.8394C42.68 9.46417 41.9397 5.85406 41.9397 5.85406ZM33.5427 3.96798C32.6308 3.55605 31.6365 3.35912 30.6365 3.39241C29.0904 3.39241 28.398 4.03616 28.375 4.68079C28.375 5.39449 29.2064 5.85405 30.5887 6.5403C32.8272 7.59846 33.865 8.90986 33.842 10.6348C33.8189 13.7411 31.166 15.7653 27.0591 15.7653C25.5753 15.7702 24.1038 15.4975 22.7203 14.9613L23.2516 11.5787L23.7829 11.832C24.9156 12.3888 26.1657 12.6648 27.4275 12.6369C28.5583 12.6369 29.7572 12.1764 29.7811 11.1643C29.7811 10.4975 29.2737 10.0132 27.7507 9.27822C26.2746 8.56452 24.3133 7.36824 24.3363 5.205C24.3593 2.2829 27.0583 0.23478 30.911 0.23478C32.1076 0.227962 33.2957 0.437996 34.4175 0.854616L33.8862 4.12294L33.5427 3.96798ZM16.3802 15.5678L18.825 0.492456H22.7212L20.2772 15.5678H16.3802ZM6.99409 15.5678L3.72754 3.29235C4.25803 3.55986 4.76054 3.87961 5.22755 4.2469C6.64671 5.40645 7.86053 6.79665 8.81819 8.35909L8.88282 8.68406L9.29812 10.7552L13.1269 0.492456H17.2568L11.1204 15.5678H6.99498H6.99409Z" fill="black" />
  <path opacity="0.35" fill-rule="evenodd" clip-rule="evenodd" d="M5.22436 4.24705C4.75762 3.8794 4.25502 3.55965 3.72435 3.2925L3.50209 2.45748C2.39913 1.82498 1.22303 1.32965 0 0.982275V0.515625H5.98941C6.34777 0.51651 6.69505 0.639943 6.97354 0.865476C7.25202 1.09101 7.44506 1.405 7.52041 1.7553L8.81676 8.35569C7.85823 6.79432 6.64379 5.40544 5.22436 4.24705Z" fill="black" />
</svg>