<svg width="77" height="14" viewBox="0 0 77 14" fill="none" xmlns="http://www.w3.org/2000/svg">
  <path fill-rule="evenodd" clip-rule="evenodd" d="M22.7976 10.377C22.1269 10.3803 21.4706 10.1824 20.914 9.80906C20.3511 9.43842 19.9155 8.90478 19.6656 8.27987C19.404 7.65895 19.3354 6.97401 19.4685 6.31373C19.6041 5.65642 19.923 5.05062 20.3883 4.56593C20.8591 4.08562 21.464 3.75789 22.1243 3.62541C22.7845 3.49293 23.4694 3.56185 24.0898 3.82319C24.7083 4.08573 25.2398 4.51738 25.6229 5.06832C26.0567 5.7213 26.2522 6.50328 26.1764 7.283C26.1006 8.06271 25.7583 8.79269 25.2067 9.35038C24.8974 9.67742 24.5238 9.93736 24.1093 10.114C23.6948 10.2906 23.2484 10.3802 22.7976 10.377ZM22.7976 8.09411e-05C21.6191 -0.00559753 20.4584 0.287593 19.4246 0.852121C18.3909 1.41472 17.516 2.228 16.8806 3.21689C16.2451 4.20578 15.8697 5.3384 15.7889 6.51021C15.7014 7.68194 15.9203 8.85627 16.4241 9.91836C17.176 11.5271 18.5133 12.7903 20.1647 13.4516C21.8161 14.1129 23.6579 14.1228 25.3163 13.4793C26.418 13.0564 27.3913 12.3565 28.1417 11.4476C27.6979 12.281 27.0403 12.9821 26.2361 13.4793V13.8506H29.7843V6.94729C29.7772 5.10318 29.0381 3.33695 27.7287 2.035C26.4194 0.73306 24.6465 0.00139571 22.7976 8.09411e-05ZM56.3952 10.4426H51.7958V8.17056H56.3076C56.8771 8.17056 57.5341 8.69496 57.5341 9.30666C57.5341 9.74361 57.1837 10.4426 56.3952 10.4426ZM51.7739 3.53913H55.6506C56.0668 3.53913 56.7676 3.97608 56.7676 4.65337C56.7676 5.19949 56.3295 5.78933 55.541 5.78933H51.7958L51.7739 3.53913ZM59.5491 6.57579C60.3814 5.3088 60.469 3.561 59.7025 2.25028C59.3279 1.59988 58.7827 1.06363 58.1254 0.699229C57.4764 0.332052 56.7469 0.129461 56.001 0.109251H48.2476V13.8725H56.9208C59.6366 13.8725 61.1479 11.6223 61.1479 9.74361C61.1479 7.95222 60.1186 7.03474 59.5491 6.57579ZM44.7434 5.17763C45.9042 8.30173 45.9699 11.1636 45.9699 13.8725H42.3779C42.3779 11.666 42.2904 9.65617 41.8304 7.84292C41.2171 5.41797 40.0564 3.64844 38.9831 3.64844C37.9099 3.64844 36.7492 5.41783 36.1358 7.84292C35.676 9.65617 35.5883 11.6004 35.5883 13.8725H31.9964C31.9964 11.404 32.062 8.32359 33.2229 5.17763C34.318 2.27214 36.333 8.09411e-05 38.9831 8.09411e-05C41.6333 8.09411e-05 43.6483 2.27214 44.7434 5.17763ZM14.4091 0.109251V1.55127C14.4056 2.59345 14.1739 3.62229 13.7301 4.56579C13.2876 5.50788 12.6361 6.33718 11.8247 6.99088C12.636 7.6445 13.2876 8.47371 13.7301 9.4157C14.1739 10.3593 14.4057 11.3882 14.4091 12.4305V13.8725H10.8172V12.0591C10.8172 11.6173 10.73 11.1798 10.5605 10.7716C10.391 10.3635 10.1425 9.99257 9.8293 9.68015C9.51609 9.36774 9.14426 9.11993 8.73504 8.95085C8.32582 8.78178 7.88721 8.69475 7.44427 8.69475C7.00133 8.69475 6.56273 8.78178 6.1535 8.95085C5.74428 9.11993 5.37245 9.36774 5.05925 9.68015C4.74604 9.99257 4.49759 10.3635 4.32809 10.7716C4.15858 11.1798 4.07134 11.6173 4.07134 12.0591V13.8724H0.45752V12.4306C0.460945 11.3883 0.692689 10.3594 1.13653 9.41583C1.579 8.47379 2.23058 7.64454 3.04193 6.99088C2.23058 6.33722 1.579 5.50796 1.13653 4.56593C0.692689 3.62234 0.460945 2.59341 0.45752 1.55113V0.109251H4.04942V1.9225C4.04942 2.36431 4.13666 2.8018 4.30617 3.20999C4.47567 3.61817 4.72412 3.98906 5.03733 4.30147C5.35054 4.61388 5.72236 4.86169 6.13159 5.03077C6.54081 5.19985 6.97942 5.28687 7.42236 5.28687C7.8653 5.28687 8.3039 5.19985 8.71312 5.03077C9.12234 4.86169 9.49417 4.61388 9.80738 4.30147C10.1206 3.98906 10.369 3.61817 10.5385 3.20999C10.708 2.8018 10.7953 2.36431 10.7953 1.9225V0.109251H14.4091ZM69.4707 10.3772C68.8 10.3804 68.1438 10.1824 67.5872 9.80906C67.0243 9.43842 66.5886 8.90478 66.3388 8.27987C66.0772 7.65895 66.0086 6.97401 66.1417 6.31373C66.2773 5.65642 66.5961 5.05062 67.0615 4.56593C67.5323 4.08565 68.1372 3.75793 68.7974 3.62545C69.4576 3.49298 70.1425 3.56188 70.7628 3.82319C71.3814 4.08571 71.9129 4.51736 72.2961 5.06832C72.7299 5.7213 72.9254 6.50328 72.8496 7.283C72.7738 8.06271 72.4314 8.79269 71.8799 9.35038C71.5706 9.67742 71.197 9.93736 70.7825 10.114C70.368 10.2906 69.9214 10.3803 69.4707 10.3772ZM76.4575 6.94729C76.4565 5.3041 75.866 3.71552 74.7929 2.46876C73.9976 1.53754 72.971 0.831088 71.8159 0.420136C70.6608 0.00918469 69.4177 -0.0918397 68.2111 0.12718C67.0045 0.3462 65.8768 0.877576 64.9408 1.6681C64.0049 2.45862 63.2936 3.48053 62.8782 4.63151C62.3268 6.18017 62.3345 7.87223 62.9 9.41583C63.4641 10.9582 64.5584 12.2511 65.9882 13.0643C67.4107 13.8844 69.0773 14.1784 70.6954 13.8948C72.3136 13.6111 73.7798 12.7679 74.8366 11.5131C74.3929 12.3466 73.7354 13.0477 72.9312 13.5449V13.9162H76.4575V6.94729Z" fill="black" />
</svg>